<svg width="512" height="512" viewBox="0 0 512 512" fill="none" xmlns="http://www.w3.org/2000/svg">
<path d="M361.5 1.59999C356.9 3.09999 352.3 7.39999 296.5 63.1L236.4 123L231 117.5C222.8 109.2 216.3 107.1 208.7 110.4C204.3 112.3 27.6 289.6 21.8 298C-0.100005 329.3 -5.7 369.2 6.5 405.6C13.3 425.8 21.6 437.7 46.4 462.6C68.3 484.6 78.5 492.8 92.4 499.5C109.4 507.7 122.2 510.9 141 511.7C166.4 512.7 190.1 506 212.1 491.5C220.7 485.8 254.8 452.8 255.6 449.3C256.4 446.4 254.3 441.2 251.9 440C250.9 439.4 248.7 439 246.9 439C244.1 439 241.6 441.1 226.6 455.8C217.2 465.1 206.6 474.6 203.1 476.9C194 483.1 181.4 488.7 170.2 491.7C161.9 493.9 158.3 494.3 145.5 494.3C128.7 494.4 122.5 493.3 107.4 487.5C91.9 481.5 82 474.1 59.9 452.1C38.6 430.7 31.6 421.5 25.3 406.7C11.7 374.3 15.3 338.5 35.3 308.5C37.8 304.7 72 269.7 127.4 214.2L215.5 126L261.5 171.9C291.1 201.5 308.4 218.1 310.1 218.5C313.2 219.3 318.4 216.9 319.4 214.5C319.7 213.6 320 211.4 320 209.7C320 206.8 316.2 202.7 284.3 170.8L248.5 135L307.2 76.3C365.5 18 366 17.5 370 17.5C374 17.5 374.5 18 434.5 78C490.9 134.4 495 138.8 495 142C495 145.1 492.9 147.4 471 169.5C449.9 190.7 447 194 447 196.8C447 201.5 450.8 205.4 455.5 205.4C459 205.4 460.4 204.1 484 180.4C506.5 157.7 508.9 155 510.5 150.1C512.8 143.2 512 135.4 508.6 129.7C507.3 127.4 478.5 98 444.8 64.3C385.6 5.29999 383.3 3.09999 378.1 1.59999C371.5 -0.300008 368 -0.300008 361.5 1.59999Z" fill="black"/>
<path d="M360 56.7C357.6 57.5 329 86.2 327.4 89.3C326.5 90.9 326.2 93 326.5 94.3C326.9 95.5 334.5 103.8 343.3 112.7C358.1 127.6 359.8 129 363 129C366.2 129 367.9 127.6 382.7 112.7C391.5 103.8 399.1 95.5 399.5 94.3C400.5 90.7 397.9 87.3 382.3 71.8C367.6 57.1 364.4 55 360 56.7ZM371.3 84.8L379 92.5L371 100.5L363 108.5L355 100.5L347 92.5L354.7 84.8C359 80.5 362.7 77 363 77C363.3 77 367 80.5 371.3 84.8Z" fill="black"/>
<path d="M417 112.7C416.2 113 408.2 120.5 399.3 129.3C384.4 144.1 383 145.8 383 149C383 152.2 384.4 153.9 399.3 168.6C408.2 177.5 416.3 185 417.3 185.4C420.9 186.6 425.7 183 440.5 168.1C454.8 153.7 455.5 152.8 455.5 149C455.5 145.2 454.8 144.3 440.5 129.9C423.7 113.1 421.2 111.2 417 112.7ZM427.5 157L419.5 165L411.5 157L403.5 149L411.5 141L419.5 133L427.5 141L435.5 149L427.5 157Z" fill="black"/>
<path d="M379 205.6C370.5 207.2 359.7 210.6 353.4 213.4C328.8 224.8 310.4 246.1 302.4 272.5C299.9 280.8 299.6 283.1 299.2 303.2L298.8 324.8L292.5 327.9C285.1 331.6 279.8 337.1 276.1 344.9L273.5 350.5V418.5V486.5L276.3 492.1C279.5 498.8 287.2 506.3 293.8 509.3L298.5 511.5H392.5H486.5L491.2 509.3C497.8 506.3 505.5 498.8 508.7 492.1L511.5 486.5V418.5V350.5L508.2 343.8C504.5 336.2 499 330.8 491.4 327.3L486 324.9V306.5C486 281.3 483.7 270.4 475 254.3C462.6 231.2 441.5 214.6 416.2 207.8C408.7 205.8 385.2 204.4 379 205.6ZM412.5 224.5C427.3 228.5 443.2 238.9 452.5 250.8C458.5 258.3 464.5 270.6 467 280.4C468.6 286.8 469 291.6 469 306.2V324H460.5H452V307.2C452 288.7 451 282.6 446 272.5C439.2 258.6 425.7 246.8 411 242C400.4 238.5 384.7 238.5 374.2 241.9C355.4 248 340.8 263.2 335.3 282.2C333.3 289.2 333 292.4 333 307.1V324H324.5H316V306.7C316 288.1 317.2 280.4 321.3 270C325.2 260.4 329.9 253.3 337.5 245.5C348.8 234 361.3 227 376.5 223.6C385.2 221.7 403.8 222.1 412.5 224.5ZM407 258.6C419.5 263.5 429.3 273.7 433 285.7C434.6 291.1 435 295 435 308.1V324H392.5H350V308.7C350 291.8 351.3 284.8 355.6 277.4C361.1 268.1 372.3 259.7 382.8 257C388.2 255.6 401.8 256.5 407 258.6ZM483.3 342.4C488.3 344.2 490.9 346.6 493.1 351.5C494.8 355.2 495 359.5 495 418.2C495 460.1 494.6 481.8 493.9 483.7C492.5 487.5 488.2 492 484.3 493.6C481.6 494.8 465.5 495 392.6 495C332.6 495 303.2 494.7 301.3 493.9C297.1 492.4 292.1 487.1 291 483C290.4 480.9 290 455.2 290 417.5C290 359.5 290.2 355.2 291.9 351.5C294.1 346.6 296.7 344.2 301.7 342.4C307.3 340.4 477.7 340.4 483.3 342.4Z" fill="black"/>
<path d="M382.3 368.4C363.1 374.7 353.3 396.5 361.5 414.7C363 418.2 364.9 421.5 365.6 422.1C366.7 423 367 426.3 367 435.4C367 453.7 370.4 461 381.2 466.4C392 471.8 405.5 468.7 412.7 459.2C417.1 453.4 418 449.5 418 435.4C418 426.3 418.3 423 419.4 422.1C420.1 421.5 422 418.2 423.5 414.7C429.4 401.7 426.3 386.3 415.8 376.4C413.1 373.9 408.8 370.9 406.2 369.8C400.3 367.1 388.3 366.4 382.3 368.4ZM399.9 386C410.5 391.3 412.7 403.6 404.7 412.7L401.5 416.3L401 432.3C400.5 447.5 400.4 448.3 398.1 450.1C394.8 452.8 389.5 452.6 386.5 449.5C384.1 447.2 384 446.7 384 432.1V417.1L381.1 413.8C376.9 408.9 375.8 406.2 375.8 401C375.8 388.3 388.7 380.3 399.9 386Z" fill="black"/>
<path d="M59.6 306.1C51.6 312.4 40.6 331.4 36.8 345.5C34 356 33.8 376.3 36.3 386C41.8 406.9 46.2 413.3 72.4 439.5C98.7 465.7 105.4 470.3 126 475.7C135.7 478.2 156 478 166.5 475.2C177.4 472.3 191 465.2 199.7 458C207 452 208.7 449 207.6 444.7C207.3 443.5 175.9 411.3 137.8 373.2C62.1 297.6 66 301 59.6 306.1ZM184.7 448.3C180.8 451.4 168.7 456.9 162 458.7C153.3 461 136.8 461 128 458.6C124.4 457.6 117.9 455 113.5 452.8C106.3 449.1 103.3 446.5 84.4 427.6C63.7 407 63.1 406.3 58.7 397C56.2 391.8 53.7 385.4 53.1 382.8C48.9 365.1 52.3 345.1 62 330L65.3 324.8L126.2 385.7L187 446.5L184.7 448.3Z" fill="black"/>
</svg>
